<svg width="1061" height="1279" viewBox="0 0 1061 1279" fill="none" xmlns="http://www.w3.org/2000/svg">
<path d="M296.539 842.009H372.571C418.651 842.009 441.691 863.513 441.691 906.521C441.691 932.057 432.091 950.873 412.891 962.969L440.827 1037.85H397.339L374.587 972.185H336.283V1037.85H296.539V842.009ZM373.147 938.201C382.171 938.201 389.083 935.417 393.883 929.849C398.683 924.089 401.083 916.409 401.083 906.809C401.083 897.209 398.587 889.721 393.595 884.345C388.603 878.777 381.595 875.993 372.571 875.993H336.283V938.201H373.147ZM472.54 1004.15L513.148 962.969C523.708 952.025 531.58 943.481 536.764 937.337C541.948 931.193 545.692 925.529 547.996 920.345C550.492 915.161 551.74 909.593 551.74 903.641C551.74 895.001 549.436 888.857 544.828 885.209C540.412 881.369 533.692 879.449 524.668 879.449C511.996 879.449 497.98 880.601 482.62 882.905L475.708 883.769L473.692 852.953C492.508 847.193 511.996 844.313 532.156 844.313C572.476 844.313 592.636 862.457 592.636 898.745C592.636 908.345 591.292 916.889 588.604 924.377C586.108 931.673 581.788 939.161 575.644 946.841C569.692 954.329 561.148 963.161 550.012 973.337L516.892 1003.29H595.804V1037.85H472.54V1004.15ZM636.289 842.009H708.289C754.753 842.009 777.985 864.665 777.985 909.977C777.985 933.017 772.033 950.585 760.129 962.681C748.417 974.777 731.137 980.825 708.289 980.825H676.033V1037.85H636.289V842.009ZM708.001 946.841C727.777 946.841 737.665 934.553 737.665 909.977C737.665 898.073 735.265 889.433 730.465 884.057C725.857 878.681 718.369 875.993 708.001 875.993H676.033V946.841H708.001Z" fill="#F2387C"/>
<path d="M741.796 294.602L530.681 0L319.204 294.602L0 132.138L211.116 653.107H530.681H849.885L1061 132.138L741.796 294.602Z" fill="white"/>
<path d="M728.513 335.852L526.973 59.3728L325.074 335.852L59.3596 201.368L230.253 623.062L526.973 623.419L823.333 623.062L994.227 201.368L728.513 335.852Z" fill="#022340"/>
<path d="M853.25 355.876L730.555 417.783V482.91L666.855 510.464L650.568 479.332L604.965 507.601L683.142 399.89L527.15 185.542L370.434 400.606L448.611 508.317L403.008 480.047L386.721 511.18L322.659 483.626V418.498L200.326 356.591L282.123 556.626H527.15V555.91H771.453L853.25 355.876Z" fill="#FEFEFE"/>
<path d="M526.977 282.024L437.751 399.777L526.977 512.095L615.821 399.777L526.977 282.024Z" fill="#F2387C"/>
</svg>
